<?xml version="1.0" encoding="utf-8"?>
<!-- Generator: Adobe Illustrator 27.8.1, SVG Export Plug-In . SVG Version: 6.00 Build 0)  -->
<svg version="1.1" id="Layer_1" xmlns="http://www.w3.org/2000/svg" xmlns:xlink="http://www.w3.org/1999/xlink" x="0px" y="0px"
	 viewBox="0 0 116 116" style="enable-background:new 0 0 116 116;" xml:space="preserve">
<style type="text/css">
	.st0{fill:none;stroke:#000000;stroke-width:2;stroke-miterlimit:10;}
	.st1{fill:none;}
</style>
<g>
	<g>
		<path class="st0" d="M113.3,55.43c-1.94,2.7-5.7,3.32-8.41,1.39l-5.63-4.02l-10.68-7.64L61.51,25.81c-2.1-1.5-4.92-1.5-7.02,0
			l-43.38,31c-2.71,1.93-6.47,1.31-8.41-1.39c-0.77-1.07-1.14-2.3-1.14-3.52c0-1.86,0.86-3.69,2.47-4.87l50.4-36.94
			c2.12-1.56,5.01-1.56,7.14,0l27.01,19.8v-8.08c0-3.59,2.91-6.5,6.5-6.5c1.8,0,3.42,0.73,4.6,1.9c1.17,1.18,1.9,2.81,1.9,4.6v17.6
			l10.39,7.62C114.64,48.99,115.23,52.74,113.3,55.43z"/>
		<path class="st0" d="M94.55,67.48v34.09c0,3.04-2.46,5.51-5.5,5.51h-62.1c-3.04,0-5.5-2.47-5.5-5.51V67.48
			c0,11.27,9.13,20.41,20.41,20.41h7.18c-0.01,0.12-0.01,0.24-0.01,0.36c0,2.23,0.82,4.27,2.16,5.83c1.64,1.92,4.09,3.14,6.81,3.14
			c2.72,0,5.17-1.22,6.81-3.14c1.34-1.56,2.16-3.6,2.16-5.83c0-0.12,0-0.24-0.01-0.36h7.18C85.41,87.88,94.55,78.75,94.55,67.48z"/>
		<path class="st0" d="M94.55,64.31v3.17c0,11.27-9.14,20.41-20.41,20.41h-7.18c-0.19-4.78-4.13-8.61-8.96-8.61
			s-8.77,3.83-8.96,8.61h-7.18c-11.28,0-20.41-9.14-20.41-20.41v-3.17c0-3.04,2.46-5.51,5.5-5.51h62.1
			C92.09,58.8,94.55,61.26,94.55,64.31z"/>
		<path class="st0" d="M68.31,72.42H47.69c-2.76,0-5-2.24-5-5V51.88c0-2.76,2.24-5,5-5h20.62c2.76,0,5,2.24,5,5v15.54
			C73.31,70.18,71.07,72.42,68.31,72.42z"/>
		<path class="st0" d="M66.97,88.25c0,2.23-0.82,4.27-2.16,5.83C63.17,96,60.72,97.22,58,97.22c-2.72,0-5.17-1.22-6.81-3.14
			c-1.34-1.56-2.16-3.6-2.16-5.83c0-0.12,0-0.24,0.01-0.36c0.19-4.78,4.13-8.61,8.96-8.61s8.77,3.83,8.96,8.61
			C66.97,88,66.97,88.13,66.97,88.25z"/>
		<path class="st0" d="M94.55,64.31v3.17c0,11.27-9.14,20.41-20.41,20.41h-7.18c-0.19-4.78-4.13-8.61-8.96-8.61
			s-8.77,3.83-8.96,8.61h-7.18c-11.28,0-20.41-9.14-20.41-20.41v-3.17c0-3.04,2.46-5.51,5.5-5.51h62.1
			C92.09,58.8,94.55,61.26,94.55,64.31z"/>
		<path class="st0" d="M68.28,58.88H47.72v-4.07c0-1.66,1.34-3,3-3h14.56c1.66,0,3,1.34,3,3V58.88z"/>
		<path class="st0" d="M26.95,107.07H9.5c-3.59,0-6.5-2.91-6.5-6.5c0-1.79,0.73-3.42,1.9-4.6c1.18-1.17,2.8-1.9,4.6-1.9h11.95v7.49
			C21.45,104.61,23.91,107.07,26.95,107.07z"/>
		<path class="st0" d="M113,100.57c0,1.79-0.73,3.42-1.9,4.6c-1.18,1.17-2.8,1.9-4.6,1.9H89.05c3.04,0,5.5-2.47,5.5-5.51v-7.49
			h11.95C110.09,94.07,113,96.99,113,100.57z"/>
	</g>
	<rect class="st1" width="116" height="116"/>
</g>
</svg>
