<?xml version="1.0" encoding="utf-8"?>
<!-- Generator: Adobe Illustrator 28.1.0, SVG Export Plug-In . SVG Version: 6.00 Build 0)  -->
<svg version="1.1" id="Layer_1" xmlns="http://www.w3.org/2000/svg" xmlns:xlink="http://www.w3.org/1999/xlink" x="0px" y="0px"
	 viewBox="0 0 116 116" style="enable-background:new 0 0 116 116;" xml:space="preserve">
<style type="text/css">
	.st0{fill:none;stroke:#000000;stroke-width:2;stroke-miterlimit:10;}
	.st1{fill:none;}
</style>
<g>
	<g>
		<path class="st0" d="M113.3,53.31c-1.94,2.71-5.71,3.33-8.41,1.39l-5.9-4.22l-10.9-7.79L61.51,23.7c-2.1-1.5-4.92-1.5-7.02,0
			l-43.38,31c-2.71,1.94-6.48,1.32-8.42-1.39c-0.76-1.06-1.13-2.29-1.13-3.51c0-1.86,0.86-3.7,2.47-4.88l50.4-36.94
			c2.12-1.56,5.01-1.56,7.14,0l26.52,19.44V19.7c0-3.59,2.91-6.5,6.5-6.5c1.8,0,3.42,0.73,4.6,1.9c1.17,1.18,1.9,2.81,1.9,4.6v17.25
			l10.87,7.97C114.64,46.88,115.23,50.61,113.3,53.31z"/>
		<circle class="st0" cx="58" cy="56.58" r="15.27"/>
		<path class="st0" d="M35.6,109.2H14.5c-3.59,0-6.5-2.91-6.5-6.5c0-1.79,0.73-3.42,1.9-4.6c1.18-1.17,2.81-1.9,4.6-1.9h15.59v7.5
			C30.09,106.73,32.56,109.2,35.6,109.2z"/>
		<path class="st0" d="M108,102.7c0,1.79-0.73,3.42-1.9,4.6c-1.18,1.17-2.81,1.9-4.6,1.9H80.4c3.04,0,5.5-2.46,5.5-5.5v-7.5h15.6
			C105.09,96.2,108,99.1,108,102.7z"/>
		<path class="st0" d="M80.4,72.34H35.6c-3.04,0-5.51,2.46-5.51,5.5v25.85c0,3.04,2.47,5.5,5.51,5.5h44.8c3.04,0,5.5-2.46,5.5-5.5
			V77.84C85.9,74.81,83.44,72.34,80.4,72.34z M61.78,96.2C60.7,96.9,59.4,97.32,58,97.32s-2.7-0.42-3.78-1.13
			c-1.85-1.23-3.07-3.33-3.07-5.71c0-3.78,3.07-6.85,6.85-6.85s6.84,3.07,6.84,6.85C64.84,92.86,63.62,94.96,61.78,96.2z"/>
		<path class="st0" d="M64.84,90.48c0,2.38-1.22,4.48-3.06,5.71C60.7,96.9,59.4,97.32,58,97.32s-2.7-0.42-3.78-1.13
			c-1.85-1.23-3.07-3.33-3.07-5.71c0-3.78,3.07-6.85,6.85-6.85S64.84,86.7,64.84,90.48z"/>
	</g>
	<rect class="st1" width="116" height="116"/>
</g>
</svg>
