<svg width="100" height="35" viewBox="0 0 100 35" fill="none" xmlns="http://www.w3.org/2000/svg">
<g clip-path="url(#clip0_1_2247)">
<path d="M31.7985 0.285156H59.1651V5.50158H48.5875V34.9256H42.4207V5.50158H31.7959V0.285156H31.7985Z" fill="black"/>
<path d="M71.5873 0L81.7849 25.1673H82.2121L92.4071 0H99.9943V34.6404H94.066V10.8136H93.7332L84.2013 34.5452H79.7904L70.2611 10.7184H69.9755V34.6404H64V0H71.5873Z" fill="black"/>
<path d="M15.2296 15.7817V24.5859C15.2139 26.5503 14.7736 28.0388 13.9087 29.0514C13.0438 30.064 11.8016 30.5717 10.1819 30.5717C8.68802 30.5717 7.46934 30.1566 6.52584 29.3237C5.58235 28.4909 5.10536 27.3672 5.08963 25.9554H0C0 27.8405 0.432435 29.4665 1.29731 30.8334C2.16218 32.2003 3.35203 33.2367 4.8721 33.9426C6.38956 34.6486 8.11406 35.0028 10.0456 35.0028C12.1161 35.0028 13.9297 34.5904 15.489 33.7655C17.0458 32.9406 18.2488 31.7482 19.0979 30.183C19.9471 28.6205 20.3716 26.7539 20.3716 24.5859V9.91748C18.6943 12.0775 16.9069 14.19 15.2296 15.7817Z" fill="black"/>
<path d="M9.36451 17.9998C10.633 19.2794 12.8161 18.0685 15.2299 15.7789V8.70117C10.9134 12.3339 7.51684 16.1358 9.36451 17.9998Z" fill="#FF4E43"/>
<path d="M27.2724 0C27.2724 0 24.0881 1.99879 20.3691 4.70615V9.91728C24.1143 5.07894 27.2724 0 27.2724 0Z" fill="#FF4E43"/>
<path d="M20.3689 9.91719V4.70605C18.6837 5.93283 16.8885 7.30237 15.2295 8.70099V15.7814C16.9068 14.1897 18.6942 12.0773 20.3689 9.91719Z" fill="#FF4E43"/>
</g>
<defs>
<clipPath id="clip0_1_2247">
<rect width="100" height="35" fill="white"/>
</clipPath>
</defs>
</svg>
