<?xml version="1.0" encoding="UTF-8"?>
<svg id="_레이어_1" data-name="레이어 1" xmlns="http://www.w3.org/2000/svg" viewBox="0 0 300 300">
  <defs>
    <style>
      .cls-1 {
        fill: #6cae9c;
      }

      .cls-2 {
        fill: #fff;
      }

      .cls-3 {
        fill: #cec3ba;
      }

      .cls-4 {
        fill: #877873;
      }

      .cls-5 {
        fill: #f8d0d1;
      }
    </style>
  </defs>
  <path class="cls-2" d="m104.47,111.53l89.79-3.25c5.33,1.96,57.04,56.77,32.09,117.25-7.47,18.1-53.36,17.06-73.55,16.06-20.19-.99-53.69-1.9-63.72-14.5-23.21-29.13-11.94-82.29,15.4-115.57Z"/>
  <g>
    <path class="cls-2" d="m103.59,238.35h-22.97c-9.24,0-16.73-6.34-16.73-14.16l-.04-3.72c0-5.98,7.97-7.79,15.69-7.69,3.68.05,7.37-.1,11.01-.58l7.5-.99c6.37,0,11.54,4.37,11.54,9.77v12.3c0,2.81-2.69,5.08-6,5.08Z"/>
    <ellipse class="cls-5" cx="68.71" cy="223.3" rx="3.14" ry="5.99" transform="translate(-11.49 3.87) rotate(-2.97)"/>
  </g>
  <path class="cls-2" d="m164.72,127.03h-36.45c-1.41,0-2.8-.08-4.17-.24-18.41-2.1-33.94-13.03-33.94-32.31h0c0-20.71,16.52-37.51,36.89-37.51h36.45c20.38,0,36.89,16.79,36.89,37.51h0c0,19.2-12.97,30.07-31.27,32.29-1.44.17-2.91.26-4.4.26Z"/>
  <g>
    <path class="cls-2" d="m175.38,36.84c-9.87-2.01-28.78,27.91-28.78,27.91l22.19,4.51,22.19,4.51s-5.72-34.93-15.6-36.94Z"/>
    <path class="cls-5" d="m173.96,49.91c-3.92-.8-10.79,11.09-10.79,11.09l8.17,1.79,6.88,1.79s-.33-13.88-4.26-14.67Z"/>
  </g>
  <g>
    <path class="cls-2" d="m115.58,37.98c9.87-2.01,28.83,28.14,28.83,28.14l-22.19,4.51-22.19,4.51s5.68-35.16,15.55-37.17Z"/>
    <path class="cls-5" d="m117.64,49.15c3.92-.8,10.81,11.18,10.81,11.18l-8.17,1.79-6.88,1.79s.32-13.97,4.24-14.77Z"/>
  </g>
  <circle class="cls-1" cx="132.24" cy="92.3" r="3.07"/>
  <path class="cls-3" d="m151.58,232.9c-2.86,0-4.62-.15-4.7-.16-.51-.05-.88-.5-.83-1.01.05-.51.49-.88,1.01-.83.35.03,35.72,3.06,50.95-19.33.29-.42.86-.53,1.28-.24s.53.86.24,1.29c-12.43,18.29-37.54,20.29-47.96,20.29Z"/>
  <circle class="cls-1" cx="159.4" cy="92.3" r="3.07"/>
  <ellipse class="cls-5" cx="146.52" cy="94.49" rx="2.65" ry="1.54"/>
  <path class="cls-4" d="m140.83,101.6c-.49,0-.89-.38-.92-.87-.03-.51.36-.95.87-.98,3.69-.21,4.56-2.99,4.59-3.1.14-.49.66-.77,1.14-.63.49.14.77.65.64,1.14-.05.17-1.22,4.16-6.27,4.45-.02,0-.04,0-.05,0Z"/>
  <path class="cls-4" d="m151.63,101.6s-.04,0-.05,0c-4.96-.29-6.12-4.28-6.16-4.45-.14-.49.15-1,.65-1.14.49-.13,1,.15,1.14.64.04.13.89,2.89,4.49,3.1.51.03.9.47.87.98-.03.49-.44.87-.92.87Z"/>
  <path class="cls-4" d="m146.75,96.41c-1.56,0-2.86-.76-2.95-.81-.44-.26-.58-.83-.32-1.27.26-.44.83-.58,1.27-.32.04.02,2.04,1.17,3.43.07.4-.32.98-.25,1.3.15.32.4.25.98-.15,1.3-.84.66-1.75.88-2.58.88Z"/>
  <g>
    <path class="cls-4" d="m120.92,95.19s-.09,0-.14-.01l-6.38-.95c-.51-.08-.85-.55-.78-1.05.08-.51.55-.85,1.05-.78l6.38.95c.51.08.85.55.78,1.05-.07.46-.46.79-.91.79Z"/>
    <path class="cls-4" d="m114.53,101.6c-.45,0-.85-.33-.91-.79-.07-.51.28-.98.78-1.05l6.38-.93c.5-.08.97.28,1.05.78.07.51-.28.98-.78,1.05l-6.38.93s-.09,0-.13,0Z"/>
  </g>
  <g>
    <path class="cls-4" d="m169.4,94.17c-.45,0-.85-.33-.91-.79-.07-.51.27-.98.78-1.05l6.38-.95c.5-.08.98.27,1.05.78.07.51-.27.98-.78,1.05l-6.38.95s-.09.01-.14.01Z"/>
    <path class="cls-4" d="m175.79,100.58s-.09,0-.13,0l-6.38-.93c-.51-.07-.86-.54-.78-1.05.07-.51.54-.86,1.05-.78l6.38.93c.51.07.86.54.78,1.05-.07.46-.46.79-.91.79Z"/>
  </g>
  <path class="cls-2" d="m156.3,263.26c-4.88,0-9.38-.27-13.28-.64-10.81-1.03-25.97-3.93-33.11-8.68-5.81-3.87-7.38-11.72-3.51-17.53,3.84-5.76,11.59-7.36,17.39-3.61,5.39,2.91,37.87,9.88,62.02.13,12.4-5,20.25-13.38,24.01-25.6,2.05-6.67,9.12-10.42,15.8-8.37,6.67,2.05,10.42,9.12,8.37,15.8-6.3,20.49-20.77,35.29-41.84,42.81-12.29,4.38-25,5.69-35.84,5.69Zm-32.44-30.41s.04.03.07.04c-.02-.01-.04-.03-.07-.04Z"/>
  <path class="cls-2" d="m236.14,200.98c0,20.44-10.1,37.02-22.57,37.02s-22.57-16.57-22.57-37.02,12.71-38.75,25.17-38.75,19.96,18.31,19.96,38.75Z"/>
</svg>