<?xml version="1.0" encoding="UTF-8"?>
<svg id="_레이어_1" data-name="레이어 1" xmlns="http://www.w3.org/2000/svg" viewBox="0 0 300 300">
  <defs>
    <style>
      .cls-1 {
        fill: #6cae9c;
      }

      .cls-2 {
        fill: #fff;
      }

      .cls-3 {
        fill: #cec3ba;
      }

      .cls-4 {
        fill: #877873;
      }

      .cls-5 {
        fill: #f8d0d1;
      }
    </style>
  </defs>
  <path class="cls-2" d="m221.92,220.67H89.25c-22.53,1.56-43.64-15.44-42.57-40.64,2.84-35.44,6.01-57.69,39.46-79.62,18.82-12.33,55.87-14.18,81.75-8.63,52.81,11.33,89.66,1.85,100.15,82.02,4.99,38.18-11.22,51.2-46.12,46.87Z"/>
  <g>
    <path class="cls-2" d="m151.48,131.75h0c0,19.2,12.94,30.07,31.19,32.29,1.44.17,2.9.26,4.39.26h36.36c1.41,0,2.79-.08,4.16-.24,18.36-2.1,33.85-13.03,33.85-32.31h0c0-20.71-16.47-37.51-36.8-37.51h-36.36"/>
    <path class="cls-3" d="m153.65,144.18c-.37,0-.72-.22-.86-.58-1.44-3.63-2.18-7.62-2.18-11.84,0-7.7,2.23-15.13,6.44-21.48.28-.43.86-.54,1.28-.26.43.28.54.86.26,1.28-4.01,6.05-6.13,13.12-6.13,20.46,0,3.99.69,7.75,2.05,11.16.19.48-.04,1.01-.52,1.2-.11.04-.23.07-.34.07Z"/>
    <g>
      <path class="cls-2" d="m176.38,73.87c9.84-2.01,28.76,28.14,28.76,28.14l-22.13,4.51-22.13,4.51s5.66-35.16,15.51-37.17Z"/>
      <path class="cls-5" d="m177.82,87.04c3.91-.8,10.78,11.18,10.78,11.18l-8.15,1.79-6.86,1.79s.31-13.97,4.23-14.77Z"/>
    </g>
    <g>
      <path class="cls-2" d="m236.08,75.25c-9.84-2.01-28.76,28.14-28.76,28.14l22.13,4.51,22.13,4.51s-5.66-35.16-15.51-37.17Z"/>
      <path class="cls-5" d="m234.02,86.42c-3.91-.8-10.78,11.18-10.78,11.18l8.15,1.79,6.86,1.79s-.31-13.97-4.23-14.77Z"/>
    </g>
    <ellipse class="cls-1" cx="221.46" cy="129.57" rx="3.06" ry="3.07"/>
    <ellipse class="cls-1" cx="194.37" cy="129.57" rx="3.06" ry="3.07"/>
    <ellipse class="cls-5" cx="207.22" cy="131.76" rx="2.64" ry="1.54"/>
    <path class="cls-4" d="m212.89,138.87s-.04,0-.05,0c-5.03-.29-6.21-4.28-6.25-4.45-.14-.49.15-1,.64-1.14.49-.14,1,.15,1.14.64.04.13.9,2.89,4.58,3.1.51.03.9.47.87.98-.03.49-.44.87-.92.87Z"/>
    <path class="cls-4" d="m202.12,138.87c-.49,0-.89-.38-.92-.87-.03-.51.36-.95.87-.98,3.6-.21,4.44-2.98,4.48-3.1.14-.49.65-.77,1.14-.64.49.14.78.64.64,1.13-.05.17-1.2,4.16-6.15,4.45-.02,0-.04,0-.05,0Z"/>
    <path class="cls-4" d="m206.99,133.68c-.83,0-1.74-.22-2.58-.88-.4-.32-.47-.9-.15-1.3s.9-.47,1.3-.15c1.4,1.1,3.4-.06,3.42-.07.44-.26,1.01-.12,1.27.32.26.44.12,1-.32,1.26-.08.05-1.38.81-2.94.81Z"/>
    <g>
      <path class="cls-4" d="m232.75,132.46c-.45,0-.85-.33-.91-.79-.08-.51.27-.98.78-1.05l6.37-.95c.5-.08.98.27,1.05.78.08.51-.27.98-.78,1.05l-6.37.95s-.09.01-.14.01Z"/>
      <path class="cls-4" d="m239.12,138.87s-.09,0-.13,0l-6.37-.93c-.51-.07-.86-.54-.78-1.05.07-.51.54-.86,1.05-.78l6.37.93c.51.07.86.54.78,1.05-.07.46-.46.79-.91.79Z"/>
    </g>
    <g>
      <path class="cls-4" d="m184.39,131.45s-.09,0-.14-.01l-6.37-.95c-.51-.08-.85-.55-.78-1.05.08-.5.55-.86,1.05-.78l6.37.95c.51.08.85.55.78,1.05-.07.46-.46.79-.91.79Z"/>
      <path class="cls-4" d="m178.02,137.86c-.45,0-.85-.33-.91-.79-.07-.51.28-.98.78-1.05l6.37-.93c.51-.07.97.28,1.05.78.07.51-.28.98-.78,1.05l-6.37.93s-.09,0-.13,0Z"/>
    </g>
  </g>
  <g>
    <path class="cls-2" d="m253.85,194.43h-9.45s-2.5,0-2.5,0h-6.02c-10.46,0-18.93,8.39-18.93,18.74h0c0,5.16,4.23,9.35,9.44,9.35h28.73c7.13,0,12.91-5.72,12.91-12.78v-1.27c0-7.76-6.35-14.05-14.19-14.05Z"/>
    <path class="cls-3" d="m226.67,222.7c-5.53,0-10.03-4.5-10.03-10.03,0-10.57,8.6-19.17,19.17-19.17h5.8c.51,0,.93.41.93.93s-.41.93-.93.93h-5.8c-9.55,0-17.32,7.77-17.32,17.32,0,4.51,3.67,8.18,8.18,8.18.51,0,.93.41.93.93s-.41.93-.93.93Z"/>
  </g>
  <g>
    <path class="cls-2" d="m164.54,196.28h9.45s2.5,0,2.5,0h6.02c10.46,0,18.93,8.39,18.93,18.74h0c0,5.16-4.23,9.35-9.44,9.35h-15.51s-8.73,0-8.73,0h-3.19c-1.26,0-2.53-.07-3.77-.29-7.48-1.3-10.44-6.09-10.44-12.49v-1.27c0-7.76,6.35-14.05,14.19-14.05Z"/>
    <path class="cls-3" d="m191.72,224.55c-.51,0-.93-.41-.93-.93s.41-.93.93-.93c4.51,0,8.18-3.67,8.18-8.18,0-9.55-7.77-17.32-17.32-17.32h-5.8c-.51,0-.93-.41-.93-.93s.41-.93.93-.93h5.8c10.57,0,19.17,8.6,19.17,19.17,0,5.53-4.5,10.03-10.03,10.03Z"/>
  </g>
  <path class="cls-2" d="m57.94,217.75c-14.29-8.09-22.59-13.94-24.87-32.85-.74-6.16,2.57-21.27,7.48-22.54,4.91-1.27,12.75,1.8,13.49,7.95,1.36,11.28,2.75,20.35,10.94,25.89,15.96,10.8,39.53,7.31,43.63,5.17,4.47-2.87,9.75-.78,11.85,4.72,2.11,5.54.18,12.44-4.31,15.41-5.52,3.66-13.69,4.71-21.4,4.71-2.78,0-11.99-.82-15.42-1.23-8.02-1.23-12.95-2.47-21.38-7.24Zm50.55-16.3s.03-.02.05-.03c-.02.01-.03.02-.05.03Z"/>
  <path class="cls-2" d="m77.86,168.57c-7.47,22.68-23.12,37.9-34.96,34-11.84-3.9-15.38-25.44-7.91-48.12,7.47-22.68,26.23-39.01,38.07-35.11,11.84,3.9,12.27,26.55,4.8,49.23Z"/>
  <path class="cls-3" d="m116.14,222.43c-.3,0-.59-.15-.77-.41-.28-.43-.17-1,.26-1.28,4.14-2.74,5.92-9.16,3.96-14.31-.97-2.54-2.74-4.39-4.87-5.09-1.84-.61-3.83-.31-5.61.83l-.07.04h0s0,0,0,0h0s0,0,0,0h0s0,0,0,0c-4.78,2.5-31.18,2.28-40.54-7.08-.36-.36-.36-.95,0-1.31s.95-.36,1.31,0c9.02,9.02,34.52,8.7,38.34,6.77,2.25-1.43,4.78-1.78,7.15-1,2.66.88,4.85,3.13,6.02,6.19,2.25,5.91.16,13.32-4.66,16.51-.16.1-.33.15-.51.15Z"/>
</svg>