<?xml version="1.0" encoding="UTF-8"?>
<svg id="_레이어_1" data-name="레이어 1" xmlns="http://www.w3.org/2000/svg" xmlns:xlink="http://www.w3.org/1999/xlink" viewBox="0 0 300 300">
  <defs>
    <style>
      .cls-1 {
        fill: #6cae9c;
      }

      .cls-2 {
        fill: #fff;
      }

      .cls-3 {
        fill: #e0b377;
      }

      .cls-4 {
        fill: #cec3ba;
      }

      .cls-5, .cls-6 {
        fill: none;
      }

      .cls-6 {
        clip-path: url(#clippath);
      }

      .cls-7 {
        fill: #877873;
      }

      .cls-8 {
        fill: #f8d0d1;
      }
    </style>
    <clipPath id="clippath">
      <path class="cls-5" d="m164.74,127.1h-36.45c-1.41,0-2.8-.08-4.17-.24-18.41-2.1-33.94-13.03-33.94-32.31h0c0-20.71,16.52-37.51,36.89-37.51h36.45c20.38,0,36.89,16.79,36.89,37.51h0c0,19.2-12.97,30.07-31.27,32.29-1.44.17-2.91.26-4.4.26Z"/>
    </clipPath>
  </defs>
  <g>
    <path class="cls-2" d="m104.49,111.6l89.79-3.25c5.33,1.96,57.04,56.77,32.09,117.25-7.47,18.1-53.36,17.06-73.55,16.06-20.19-.99-53.69-1.9-63.72-14.5-23.21-29.13-11.94-82.29,15.4-115.57Z"/>
    <path class="cls-2" d="m164.74,127.1h-36.45c-1.41,0-2.8-.08-4.17-.24-18.41-2.1-33.94-13.03-33.94-32.31h0c0-20.71,16.52-37.51,36.89-37.51h36.45c20.38,0,36.89,16.79,36.89,37.51h0c0,19.2-12.97,30.07-31.27,32.29-1.44.17-2.91.26-4.4.26Z"/>
    <g>
      <path class="cls-2" d="m175.4,36.9c-9.87-2.01-28.78,27.91-28.78,27.91l22.19,4.51,22.19,4.51s-5.72-34.93-15.6-36.94Z"/>
      <path class="cls-8" d="m173.97,49.98c-3.92-.8-10.79,11.09-10.79,11.09l8.17,1.79,6.88,1.79s-.33-13.88-4.26-14.67Z"/>
    </g>
    <g>
      <path class="cls-2" d="m115.6,38.05c9.87-2.01,28.83,28.14,28.83,28.14l-22.19,4.51-22.19,4.51s5.68-35.16,15.55-37.17Z"/>
      <path class="cls-8" d="m117.66,49.22c3.92-.8,10.81,11.18,10.81,11.18l-8.17,1.79-6.88,1.79s.32-13.97,4.24-14.77Z"/>
    </g>
    <circle class="cls-1" cx="132.26" cy="92.37" r="3.07"/>
    <circle class="cls-1" cx="159.42" cy="92.37" r="3.07"/>
    <ellipse class="cls-8" cx="146.54" cy="94.56" rx="2.65" ry="1.54"/>
    <path class="cls-7" d="m140.85,101.67c-.49,0-.89-.38-.92-.87-.03-.51.36-.95.87-.98,3.69-.21,4.56-2.99,4.59-3.1.15-.49.66-.77,1.14-.63s.77.65.64,1.14c-.05.17-1.22,4.16-6.27,4.45-.02,0-.04,0-.05,0Z"/>
    <path class="cls-7" d="m151.65,101.67s-.04,0-.05,0c-4.96-.29-6.12-4.28-6.16-4.45-.14-.49.15-1,.65-1.14.49-.13,1,.15,1.14.64.04.13.89,2.89,4.49,3.1.51.03.9.47.87.98-.03.49-.44.87-.92.87Z"/>
    <path class="cls-7" d="m146.76,96.48c-1.56,0-2.86-.76-2.95-.81-.44-.26-.58-.83-.32-1.27.26-.44.83-.58,1.27-.32.04.02,2.04,1.17,3.44.07.4-.32.98-.25,1.3.15.32.4.25.98-.15,1.3-.84.66-1.75.88-2.58.88Z"/>
    <g>
      <path class="cls-7" d="m120.94,95.26s-.09,0-.14-.01l-6.38-.95c-.51-.08-.85-.55-.78-1.05.07-.51.55-.86,1.05-.78l6.38.95c.51.08.85.55.78,1.05-.07.46-.46.79-.91.79Z"/>
      <path class="cls-7" d="m114.55,101.67c-.45,0-.85-.33-.91-.79-.07-.51.28-.98.78-1.05l6.38-.93c.51-.08.98.28,1.05.78.07.51-.28.98-.78,1.05l-6.38.93s-.09,0-.13,0Z"/>
    </g>
    <g>
      <path class="cls-7" d="m169.42,94.24c-.45,0-.85-.33-.91-.79-.08-.51.27-.98.78-1.05l6.38-.95c.5-.08.98.27,1.05.78.08.51-.27.98-.78,1.05l-6.38.95s-.09.01-.14.01Z"/>
      <path class="cls-7" d="m175.81,100.65s-.09,0-.13,0l-6.38-.93c-.51-.07-.86-.54-.78-1.05s.54-.86,1.05-.78l6.38.93c.51.07.86.54.78,1.05-.07.46-.46.79-.91.79Z"/>
    </g>
    <path class="cls-3" d="m156.32,263.33c-4.88,0-9.38-.27-13.28-.64-10.81-1.03-25.97-3.93-33.11-8.68-5.81-3.87-7.38-11.72-3.51-17.53,3.84-5.76,11.59-7.36,17.39-3.61,5.39,2.9,37.87,9.88,62.02.13,12.4-5,20.25-13.38,24.01-25.6,2.05-6.67,9.12-10.42,15.8-8.37,6.67,2.05,10.42,9.12,8.37,15.8-6.3,20.49-20.77,35.29-41.84,42.81-12.28,4.38-25,5.69-35.84,5.69Zm-32.44-30.41s.04.03.06.04c-.02-.01-.04-.03-.06-.04Z"/>
    <path class="cls-2" d="m236.16,201.04c0,20.44-10.1,37.02-22.57,37.02s-22.57-16.57-22.57-37.02,12.71-38.75,25.17-38.75,19.96,18.31,19.96,38.75Z"/>
    <g>
      <path class="cls-2" d="m103.57,236.73h-22.97c-9.24,0-16.73-6.34-16.73-14.16l-.04-3.72c0-5.98,7.97-7.79,15.69-7.69,3.68.05,7.37-.1,11.01-.58l7.5-.99c6.37,0,11.54,4.37,11.54,9.77v12.3c0,2.81-2.69,5.08-6,5.08Z"/>
      <ellipse class="cls-8" cx="68.69" cy="221.68" rx="3.14" ry="5.99" transform="translate(-11.41 3.86) rotate(-2.97)"/>
    </g>
  </g>
  <g>
    <path class="cls-3" d="m123.12,232.84c-5.78-3.77-13.54-2.2-17.4,3.55-3.89,5.8-2.35,13.65,3.45,17.54,7.13,4.78,22.27,7.73,33.08,8.8,3.9.39,8.4.67,13.28.69,1.77,0,3.59-.03,5.45-.1l-.99-25.29c-17.37.63-33.25-3.22-36.87-5.19Z"/>
    <g>
      <path class="cls-3" d="m115.6,38.05c9.87-2.01,28.83,28.14,28.83,28.14l-22.19,4.51-22.19,4.51s5.68-35.16,15.55-37.17Z"/>
      <path class="cls-8" d="m117.66,49.22c3.92-.8,10.81,11.18,10.81,11.18l-8.17,1.79-6.88,1.79s.32-13.97,4.24-14.77Z"/>
    </g>
    <g class="cls-6">
      <path class="cls-3" d="m125.57,20.31L60.37,102.81s63.93,12.75,90.45-49.54c26.52-62.29-25.25-32.95-25.25-32.95Z"/>
      <path class="cls-3" d="m161.02,18.46l65.2,82.49s-63.93,12.75-90.45-49.54c-26.52-62.29,25.25-32.95,25.25-32.95Z"/>
    </g>
    <g>
      <path class="cls-3" d="m175.45,36.67c-9.87-2.01-28.83,28.14-28.83,28.14l22.19,4.51,22.19,4.51s-5.68-35.16-15.55-37.17Z"/>
      <path class="cls-8" d="m174,49.84c-3.92-.8-10.81,11.18-10.81,11.18l8.17,1.79,6.88,1.79s-.32-13.97-4.24-14.77Z"/>
    </g>
    <path class="cls-4" d="m109.5,175.99c-.2,0-.4-.06-.56-.19-.4-.31-.48-.89-.17-1.3.2-.26,4.93-6.31,14.22-11.12,8.55-4.44,22.71-8.57,41.62-3.06.49.14.77.66.63,1.15-.14.49-.66.77-1.15.63-18.28-5.33-31.93-1.37-40.17,2.88-8.95,4.62-13.63,10.59-13.68,10.65-.18.24-.46.36-.73.36Z"/>
    <path class="cls-3" d="m236.16,201.04c0,20.44-10.1,37.02-22.57,37.02s-22.57-16.57-22.57-37.02,12.71-38.75,25.17-38.75,19.96,18.31,19.96,38.75Z"/>
  </g>
</svg>