<?xml version="1.0" encoding="UTF-8"?>
<svg id="_레이어_1" data-name="레이어 1" xmlns="http://www.w3.org/2000/svg" viewBox="0 0 300 300">
  <defs>
    <style>
      .cls-1 {
        fill: #ab9c8a;
      }

      .cls-2 {
        fill: #6cae9c;
      }

      .cls-3 {
        fill: #d6c7b8;
      }

      .cls-4 {
        fill: #fff;
      }

      .cls-5 {
        fill: #cec3ba;
      }

      .cls-6 {
        fill: #d0bda9;
      }

      .cls-7 {
        fill: #877873;
      }

      .cls-8 {
        fill: #f8d0d1;
      }
    </style>
  </defs>
  <g>
    <path class="cls-4" d="m109.88,106.51h67.17s32.22,25.77,39.69,77.85H84.48s.28-49.11,25.41-77.85Z"/>
    <path class="cls-4" d="m190.58,108.52c0,22.91-25.35,35.93-56.63,35.93s-56.63-13.02-56.63-35.93,25.35-41.48,56.63-41.48,56.63,18.57,56.63,41.48Z"/>
    <g>
      <path class="cls-4" d="m165.7,55.61c-9.41-1.91-27.49,26.83-27.49,26.83l21.16,4.3,21.16,4.3s-5.41-33.53-14.82-35.44Z"/>
      <path class="cls-8" d="m164.32,68.16c-3.74-.76-10.31,10.66-10.31,10.66l7.79,1.71,6.56,1.71s-.3-13.32-4.04-14.08Z"/>
    </g>
    <g>
      <path class="cls-4" d="m101.48,55.61c9.41-1.91,27.49,26.83,27.49,26.83l-21.16,4.3-21.16,4.3s5.41-33.53,14.82-35.44Z"/>
      <path class="cls-8" d="m103.44,66.26c3.74-.76,10.31,10.66,10.31,10.66l-7.79,1.71-6.56,1.71s.3-13.32,4.04-14.08Z"/>
    </g>
    <circle class="cls-2" cx="126.84" cy="116.03" r="3.07"/>
    <circle class="cls-2" cx="154" cy="116.03" r="3.07"/>
    <ellipse class="cls-8" cx="141.12" cy="118.22" rx="2.65" ry="1.54"/>
    <path class="cls-7" d="m135.43,125.32c-.49,0-.89-.38-.92-.87-.03-.51.36-.95.87-.98,3.69-.21,4.56-2.99,4.59-3.1.15-.49.66-.77,1.14-.63.49.14.77.65.64,1.14-.05.17-1.22,4.16-6.27,4.44-.02,0-.04,0-.05,0Z"/>
    <path class="cls-7" d="m146.23,125.32s-.04,0-.05,0c-4.96-.29-6.12-4.28-6.16-4.45-.14-.49.15-1,.65-1.14.49-.13,1,.15,1.14.64.04.13.89,2.89,4.49,3.1.51.03.9.47.87.98-.03.49-.44.87-.92.87Z"/>
    <path class="cls-7" d="m141.35,120.13c-1.56,0-2.86-.76-2.95-.81-.44-.26-.58-.83-.32-1.27.26-.44.83-.58,1.27-.32.04.02,2.04,1.17,3.44.07.4-.32.98-.25,1.3.15.32.4.25.98-.15,1.3-.84.66-1.75.88-2.58.88Z"/>
    <g>
      <path class="cls-7" d="m115.52,118.92s-.09,0-.14-.01l-6.38-.95c-.51-.08-.85-.55-.78-1.05.08-.51.55-.86,1.05-.78l6.38.95c.51.08.85.55.78,1.05-.07.46-.46.79-.91.79Z"/>
      <path class="cls-7" d="m109.13,125.32c-.45,0-.85-.33-.91-.79-.07-.51.28-.98.78-1.05l6.38-.93c.5-.08.97.28,1.05.78.07.51-.28.98-.78,1.05l-6.38.93s-.09,0-.13,0Z"/>
    </g>
    <g>
      <path class="cls-7" d="m164.01,117.9c-.45,0-.85-.33-.91-.79-.08-.51.27-.98.78-1.05l6.38-.95c.51-.08.98.27,1.05.78.08.51-.27.98-.78,1.05l-6.38.95s-.09.01-.14.01Z"/>
      <path class="cls-7" d="m170.39,124.31s-.09,0-.13,0l-6.38-.93c-.51-.07-.86-.54-.78-1.05.07-.51.54-.85,1.05-.78l6.38.93c.51.07.86.54.78,1.05-.07.46-.46.79-.91.79Z"/>
    </g>
    <g>
      <rect class="cls-1" x="60.62" y="146.31" width="167.71" height="98.18"/>
      <rect class="cls-6" x="60.62" y="146.31" width="126.3" height="98.18"/>
      <polygon class="cls-3" points="171.88 191.12 46.66 191.12 61.69 146.31 186.92 146.31 171.88 191.12"/>
      <polygon class="cls-6" points="210.55 191.12 253.34 191.12 229.7 146.31 186.92 146.31 210.55 191.12"/>
    </g>
  </g>
  <path class="cls-5" d="m137.95,140.98c-10.35,0-18.49-2.74-19.01-2.92-.48-.17-.74-.69-.57-1.18.17-.48.69-.74,1.18-.57.19.07,19.58,6.59,36.34-.59.47-.2,1.01.02,1.21.49.2.47-.02,1.01-.49,1.21-6.28,2.69-12.82,3.56-18.66,3.56Z"/>
</svg>