<?xml version="1.0" encoding="UTF-8"?>
<svg id="_레이어_1" data-name="레이어 1" xmlns="http://www.w3.org/2000/svg" xmlns:xlink="http://www.w3.org/1999/xlink" viewBox="0 0 300 300">
  <defs>
    <style>
      .cls-1 {
        fill: #ab9c8a;
      }

      .cls-2 {
        fill: #d6c7b8;
      }

      .cls-3 {
        fill: #fff;
      }

      .cls-4 {
        fill: #7cafbf;
      }

      .cls-5 {
        fill: #cec3ba;
      }

      .cls-6 {
        fill: #3a3a3a;
      }

      .cls-7 {
        fill: #d0bda9;
      }

      .cls-8, .cls-9 {
        fill: none;
      }

      .cls-9 {
        clip-path: url(#clippath);
      }

      .cls-10 {
        fill: #877873;
      }

      .cls-11 {
        fill: #f8d0d1;
      }
    </style>
    <clipPath id="clippath">
      <path class="cls-8" d="m190.58,108.94c0,22.91-25.35,35.93-56.63,35.93s-56.63-13.02-56.63-35.93,25.35-41.48,56.63-41.48,56.63,18.57,56.63,41.48Z"/>
    </clipPath>
  </defs>
  <g>
    <path class="cls-3" d="m109.88,106.93h67.17s32.22,25.77,39.69,77.85H84.48s.28-49.11,25.41-77.85Z"/>
    <g class="cls-9">
      <path class="cls-3" d="m190.58,108.94c0,22.91-25.35,35.93-56.63,35.93s-56.63-13.02-56.63-35.93,25.35-41.48,56.63-41.48,56.63,18.57,56.63,41.48Z"/>
      <path class="cls-6" d="m161.06,60.69c3.71-20.72-10.94-19.51-21.99-15.94-.62.2-1.3.22-1.93.06-9.29-2.38-19.52-1.73-18.01,13.48.1.96-24.64.55-25.25,1.3l-29.28,66.48c-1.86,2.26-.4,5.67,2.52,5.89,13.9,1.04,46.49.32,70.37-24.87,1.43-1.51,3.78-1.53,5.21-.03,22.44,23.46,52.56,24.27,65.72,23.31,2.9-.21,4.36-3.59,2.53-5.86l-36.9-62.45c-.66-.82-13.17-.32-12.99-1.36Z"/>
      <path class="cls-8" d="m156.95,145.01h-31.96c-1.24,0-2.46-.07-3.65-.21-16.14-1.85-29.76-11.43-29.76-28.33h0c0-18.16,14.48-32.88,32.35-32.88h31.96c17.87,0,32.35,14.72,32.35,32.88h0c0,16.83-11.37,26.37-27.42,28.31-1.27.15-2.55.23-3.86.23Z"/>
      <path class="cls-8" d="m153.96,141.13h-37.32c-1.44,0-2.87-.08-4.27-.23-18.85-2.08-34.75-12.87-34.75-31.92h0c0-20.46,16.91-37.05,37.77-37.05l37.47-3.7c20.86,0,37.62,19.74,37.62,40.09v3.08c-1.85,18.5-13.28,27.29-32.02,29.48-1.48.17-2.98.26-4.51.26Z"/>
    </g>
    <g>
      <path class="cls-3" d="m165.7,56.02c-9.41-1.91-27.49,26.83-27.49,26.83l21.16,4.3,21.16,4.3s-5.41-33.53-14.82-35.44Z"/>
      <path class="cls-11" d="m164.32,68.57c-3.74-.76-10.31,10.66-10.31,10.66l7.79,1.71,6.56,1.71s-.3-13.32-4.04-14.08Z"/>
    </g>
    <g>
      <path class="cls-3" d="m101.48,56.02c9.41-1.91,27.49,26.83,27.49,26.83l-21.16,4.3-21.16,4.3s5.41-33.53,14.82-35.44Z"/>
      <path class="cls-11" d="m103.44,66.67c3.74-.76,10.31,10.66,10.31,10.66l-7.79,1.71-6.56,1.71s.3-13.32,4.04-14.08Z"/>
    </g>
    <circle class="cls-4" cx="126.84" cy="116.44" r="3.07"/>
    <circle class="cls-4" cx="154" cy="116.44" r="3.07"/>
    <ellipse class="cls-11" cx="141.12" cy="118.63" rx="2.65" ry="1.54"/>
    <path class="cls-10" d="m135.43,125.74c-.49,0-.89-.38-.92-.87-.03-.51.36-.95.87-.98,3.69-.21,4.56-2.99,4.59-3.1.15-.49.66-.77,1.14-.63.49.14.77.65.64,1.14-.05.17-1.22,4.16-6.27,4.44-.02,0-.04,0-.05,0Z"/>
    <path class="cls-10" d="m146.23,125.74s-.04,0-.05,0c-4.96-.29-6.12-4.28-6.16-4.45-.14-.49.15-1,.65-1.14.49-.13,1,.15,1.14.64.04.12.89,2.89,4.49,3.1.51.03.9.47.87.98-.03.49-.44.87-.92.87Z"/>
    <path class="cls-10" d="m141.35,120.55c-1.56,0-2.86-.76-2.95-.81-.44-.26-.58-.83-.32-1.27.26-.44.83-.58,1.27-.32.04.02,2.04,1.17,3.44.07.4-.32.98-.25,1.3.15s.25.98-.15,1.3c-.84.66-1.75.88-2.58.88Z"/>
    <g>
      <path class="cls-10" d="m115.52,119.33s-.09,0-.14-.01l-6.38-.95c-.51-.08-.85-.55-.78-1.05.07-.51.55-.86,1.05-.78l6.38.95c.51.08.85.55.78,1.05-.07.46-.46.79-.91.79Z"/>
      <path class="cls-10" d="m109.13,125.74c-.45,0-.85-.33-.91-.79-.07-.51.28-.98.78-1.05l6.38-.93c.51-.07.98.28,1.05.78.07.51-.28.98-.78,1.05l-6.38.93s-.09,0-.13,0Z"/>
    </g>
    <g>
      <path class="cls-10" d="m164.01,118.32c-.45,0-.85-.33-.91-.79-.08-.51.27-.98.78-1.05l6.38-.95c.5-.08.98.27,1.05.78.08.51-.27.98-.78,1.05l-6.38.95s-.09.01-.14.01Z"/>
      <path class="cls-10" d="m170.39,124.72s-.09,0-.13,0l-6.38-.93c-.51-.07-.86-.54-.78-1.05s.54-.86,1.05-.78l6.38.93c.51.07.86.54.78,1.05-.07.46-.46.79-.91.79Z"/>
    </g>
    <g>
      <rect class="cls-1" x="60.62" y="146.72" width="167.71" height="98.18"/>
      <rect class="cls-7" x="60.62" y="146.72" width="126.3" height="98.18"/>
      <polygon class="cls-2" points="171.88 191.53 46.66 191.53 61.69 146.72 186.92 146.72 171.88 191.53"/>
      <polygon class="cls-7" points="210.55 191.53 253.34 191.53 229.7 146.72 186.92 146.72 210.55 191.53"/>
    </g>
    <g>
      <path class="cls-6" d="m100.97,55.46c9.87-2.01,28.81,28.03,28.81,28.03l-22.19,4.51-22.19,4.51s5.7-35.04,15.57-37.05Z"/>
      <path class="cls-11" d="m103.03,66.59c3.92-.8,10.8,11.14,10.8,11.14l-8.17,1.79-6.88,1.79s.33-13.92,4.25-14.72Z"/>
    </g>
    <g>
      <path class="cls-6" d="m165.74,55.2c-9.87-2.01-28.83,28.14-28.83,28.14l22.19,4.51,22.19,4.51s-5.68-35.16-15.55-37.17Z"/>
      <path class="cls-11" d="m164.29,68.36c-3.92-.8-10.81,11.18-10.81,11.18l8.17,1.79,6.88,1.79s-.32-13.97-4.24-14.77Z"/>
    </g>
  </g>
  <path class="cls-5" d="m137.96,141.39c-10.35,0-18.49-2.74-19.01-2.92-.48-.17-.74-.69-.57-1.18s.7-.74,1.18-.57c.19.07,19.58,6.58,36.34-.59.47-.2,1.01.02,1.21.49.2.47-.02,1.01-.49,1.21-6.28,2.69-12.82,3.56-18.66,3.56Z"/>
</svg>