<?xml version="1.0" encoding="UTF-8"?>
<svg id="_레이어_1" data-name="레이어 1" xmlns="http://www.w3.org/2000/svg" viewBox="0 0 300 300">
  <defs>
    <style>
      .cls-1 {
        fill: #cec3ba;
      }

      .cls-2 {
        fill: #3a3a3a;
      }

      .cls-3 {
        fill: #e8c26b;
      }

      .cls-4 {
        fill: #877873;
      }

      .cls-5 {
        fill: #f8d0d1;
      }
    </style>
  </defs>
  <path class="cls-2" d="m109.15,179.68l-11.87,23.02c-4.77,9.26-18.58,13.35-28.12,8.43l-4.56-2.3c-9.12-7.47-2.84-14.25,1.28-21.93,1.97-3.66,3.35-6.65,4.65-10.61l2.66-8.14c3.29-6.39,11.3-8.81,17.87-5.42l15,7.73c3.42,1.76,4.81,5.89,3.09,9.21Z"/>
  <path class="cls-2" d="m212.21,172.6l-5.94,25.21c-2.39,10.14-14.8,17.45-25.24,14.99l-4.98-1.13c-10.65-5.04-6.21-13.14-4.07-21.58,1.02-4.03,1.64-7.27,1.94-11.42l.61-8.54c1.65-6.99,8.82-11.29,16.03-9.59l16.42,3.87c3.75.88,6.09,4.55,5.23,8.18Z"/>
  <path class="cls-2" d="m200.35,138.73c-10.04,0-19.87-2.62-29.16-7.85-5.62-3.17-7.61-10.29-4.45-15.92,3.17-5.62,10.29-7.61,15.91-4.45,10.3,5.8,20.89,6.41,32.38,1.87,22.39-8.84,39.71-34.19,41.48-39.57,1.5-6.2,7.71-10.07,13.95-8.65,6.29,1.43,10.24,7.69,8.81,13.98-1.76,7.74-10.07,19.32-16.66,26.89-7.66,8.81-20.15,20.8-36.13,27.88-8.73,3.87-17.51,5.8-26.13,5.8Zm56.15-65.83s-.01.05-.02.07c0-.02.01-.05.02-.07Z"/>
  <g>
    <path class="cls-2" d="m70.12,169.14l-25.06,6.54c-10.08,2.63-20.38-3.41-23.01-13.49l-1.3-4.79c-2.01-7.7,6.08-12.31,14.54-14.37,4.04-.99,8.01-2.23,11.82-3.88l7.85-3.41c6.95-1.81,14.06,2.35,15.87,9.3l4.14,15.85c.94,3.62-1.22,7.31-4.84,8.25Z"/>
    <ellipse class="cls-5" cx="28.28" cy="161" rx="4.18" ry="7.98" transform="translate(-56.87 21.46) rotate(-21.43)"/>
  </g>
  <g>
    <path class="cls-2" d="m243.47,139.93l18.68,17.94c7.51,7.22,7.49,21.62.06,29.36l-3.5,3.72c-9.76,6.61-14.47-1.35-20.65-7.48-2.95-2.93-5.42-5.11-8.84-7.48l-7.04-4.87c-5.18-4.98-5.23-13.34-.1-18.68l11.69-12.17c2.67-2.78,7.01-2.93,9.71-.34Z"/>
    <ellipse class="cls-5" cx="260.05" cy="179.53" rx="7.73" ry="3.97" transform="translate(-14.36 336.25) rotate(-64.35)"/>
  </g>
  <path class="cls-2" d="m247.58,130.68c-4.56,39.9-26.92,44.68-82.02,53.44-58.2,9.25-116.91-3.33-116.91-48.89,0-18.75,1.53-33.94,23.94-45.03,17.48-8.65,63.95-20.49,88.35-22.23,23.94-1.71,49.02,0,64.41,13.11,21.44,18.26,24.52,29.59,22.23,49.59Z"/>
  <g>
    <path class="cls-2" d="m133.24,99.01h0c0,17.74-11.99,27.8-28.9,29.84-1.33.16-2.69.24-4.07.24h-33.69c-1.3,0-2.59-.07-3.85-.22-17.02-1.95-31.37-12.04-31.37-29.86h0c0-19.14,15.27-34.66,34.1-34.66h33.69"/>
    <g>
      <path class="cls-2" d="m110.17,45.52c-9.12-1.86-26.65,26.01-26.65,26.01l20.51,4.17,20.51,4.17s-5.25-32.5-14.37-34.35Z"/>
      <path class="cls-5" d="m108.83,57.68c-3.62-.74-9.99,10.33-9.99,10.33l7.55,1.66,6.35,1.66s-.29-12.91-3.92-13.65Z"/>
    </g>
    <g>
      <path class="cls-2" d="m54.85,46.79c9.12-1.86,26.65,26.01,26.65,26.01l-20.51,4.17-20.51,4.17s5.25-32.5,14.37-34.35Z"/>
      <path class="cls-5" d="m56.76,57.11c3.62-.74,9.99,10.33,9.99,10.33l-7.55,1.66-6.35,1.66s.29-12.91,3.92-13.65Z"/>
    </g>
    <circle class="cls-3" cx="70.25" cy="96.99" r="2.84"/>
    <circle class="cls-3" cx="95.36" cy="96.99" r="2.84"/>
    <ellipse class="cls-5" cx="83.45" cy="99.02" rx="2.45" ry="1.43"/>
    <path class="cls-4" d="m78.19,105.59c-.45,0-.83-.35-.85-.81-.03-.47.33-.88.81-.9,3.41-.19,4.21-2.76,4.24-2.87.13-.45.61-.71,1.06-.58s.71.6.59,1.05c-.04.16-1.13,3.84-5.79,4.11-.02,0-.03,0-.05,0Z"/>
    <path class="cls-4" d="m88.17,105.59s-.03,0-.05,0c-4.59-.26-5.65-3.95-5.7-4.11-.13-.46.14-.93.6-1.05.45-.12.92.14,1.05.59.04.12.82,2.67,4.15,2.86.47.03.83.43.8.9-.03.45-.4.81-.85.81Z"/>
    <path class="cls-4" d="m83.66,100.79c-1.44,0-2.65-.71-2.72-.75-.4-.24-.54-.77-.29-1.17.24-.4.77-.53,1.17-.3.04.02,1.89,1.08,3.17.06.37-.29.91-.23,1.2.14.29.37.23.91-.14,1.2-.78.61-1.62.81-2.39.81Z"/>
    <g>
      <path class="cls-4" d="m59.79,99.66s-.08,0-.13,0l-5.9-.88c-.47-.07-.79-.5-.72-.97.07-.47.51-.79.97-.72l5.9.88c.47.07.79.5.72.97-.06.42-.43.73-.84.73Z"/>
      <path class="cls-4" d="m53.89,105.59c-.42,0-.78-.31-.84-.73-.07-.47.26-.9.72-.97l5.9-.86c.46-.07.9.26.97.72.07.47-.26.9-.72.97l-5.9.86s-.08,0-.12,0Z"/>
    </g>
    <g>
      <path class="cls-4" d="m104.6,98.73c-.42,0-.78-.3-.84-.73-.07-.47.25-.9.72-.97l5.9-.88c.47-.07.9.25.97.72.07.47-.25.9-.72.97l-5.9.88s-.09,0-.13,0Z"/>
      <path class="cls-4" d="m110.5,104.65s-.08,0-.12,0l-5.9-.86c-.47-.07-.79-.5-.72-.97.07-.47.5-.79.97-.72l5.9.86c.47.07.79.5.72.97-.06.43-.43.73-.84.73Z"/>
    </g>
  </g>
  <path class="cls-1" d="m120.46,122.83c-.28,0-.55-.13-.71-.38-.26-.39-.15-.92.24-1.18,7.74-5.12,11.83-13.21,11.83-23.39,0-5.47-1.25-10.7-3.7-15.52-.21-.42-.05-.94.37-1.15.42-.21.94-.05,1.15.37,2.54,5,3.89,10.63,3.89,16.3,0,10.79-4.36,19.37-12.6,24.82-.15.1-.31.14-.47.14Z"/>
</svg>