<svg width="18" height="23" viewBox="0 0 18 23" fill="none" xmlns="http://www.w3.org/2000/svg">
<path d="M10.0518 10.2797V16.0147C10.0414 17.2943 9.75079 18.2639 9.17996 18.9235C8.60913 19.5831 7.78922 19.9138 6.72021 19.9138C5.73423 19.9138 4.92988 19.6434 4.30716 19.1009C3.68444 18.5584 3.36962 17.8265 3.35924 16.9068H0C0 18.1347 0.285414 19.1939 0.856243 20.0843C1.42707 20.9747 2.21239 21.6498 3.21567 22.1096C4.21721 22.5695 5.35541 22.8002 6.63026 22.8002C7.99679 22.8002 9.1938 22.5316 10.223 21.9942C11.2505 21.4569 12.0445 20.6802 12.6049 19.6606C13.1654 18.6428 13.4456 17.4269 13.4456 16.0147V6.45978C12.3385 7.86683 11.1588 9.24289 10.0518 10.2797Z" fill="black"/>
<path d="M6.18115 11.725C7.01837 12.5586 8.45928 11.7698 10.0524 10.2784V5.66797C7.20346 8.0343 4.96166 10.5109 6.18115 11.725Z" fill="#FF4E43"/>
<path d="M18.0006 0C18.0006 0 15.8989 1.302 13.4443 3.06556V6.46006C15.9162 3.30839 18.0006 0 18.0006 0Z" fill="#FF4E43"/>
<path d="M13.4448 6.45957V3.06506C12.3326 3.86418 11.1477 4.75629 10.0527 5.66734V10.2795C11.1598 9.24268 12.3395 7.86662 13.4448 6.45957Z" fill="#FF4E43"/>
</svg>
