<svg width="324" height="112" viewBox="0 0 324 112" fill="none" xmlns="http://www.w3.org/2000/svg">
<path d="M103.03 0.910645H191.7V17.5915H157.428V111.682H137.447V17.5915H103.021V0.910645H103.03Z" fill="white"/>
<path d="M231.959 0.910645L265 81.3896H266.384L299.417 0.910645H324V111.682H304.792V35.4898H303.714L272.829 111.378H258.538L227.662 35.1854H226.737V111.682H207.375V0.910645H231.959Z" fill="white"/>
<path fill-rule="evenodd" clip-rule="evenodd" d="M66.0023 31.7101V31.7103C64.5141 33.6048 62.9984 35.4879 61.4701 37.3282C62.999 35.4885 64.5158 33.6062 66.0058 31.7125V78.6184C66.0058 85.5511 64.6301 91.52 61.8788 96.5167C59.1275 101.522 55.2298 105.335 50.1858 107.973C45.1332 110.61 39.257 111.929 32.5486 111.929C26.2902 111.929 20.7027 110.796 15.786 108.539C10.8609 106.282 7.00563 102.968 4.20338 98.5965C1.40113 94.2255 0 89.0259 0 82.9978H16.4908C16.5418 87.5126 18.0873 91.1058 21.1443 93.769C24.2013 96.4321 28.1499 97.7595 32.9902 97.7595C38.238 97.7595 42.2631 96.1362 45.0653 92.8981C47.8676 89.66 49.2942 84.9001 49.3451 78.6184V50.4647C49.3468 50.4631 49.3485 50.4615 49.3502 50.46V27.8212C54.7254 23.3488 60.5422 18.9693 66.0023 15.0464V15.0474C78.051 6.39082 88.3671 0 88.3671 0C88.3671 0 78.1359 16.2391 66.0023 31.7101ZM49.3487 50.4576C41.5279 57.7793 34.4543 61.6515 30.3443 57.5595C24.3577 51.599 35.3629 39.4413 49.3487 27.8248V50.4576Z" fill="white"/>
</svg>
